<?xml version="1.0" encoding="UTF-8" standalone="no"?>
<!-- Created with Inkscape (http://www.inkscape.org/) -->

<svg
   width="1920"
   height="1080"
   viewBox="0 0 508 285.74999"
   version="1.1"
   id="svg5"
   inkscape:version="1.2.2 (732a01da63, 2022-12-09)"
   sodipodi:docname="loading_ui.svg"
   inkscape:export-filename="loading_ui.png"
   inkscape:export-xdpi="96"
   inkscape:export-ydpi="96"
   xmlns:inkscape="http://www.inkscape.org/namespaces/inkscape"
   xmlns:sodipodi="http://sodipodi.sourceforge.net/DTD/sodipodi-0.dtd"
   xmlns="http://www.w3.org/2000/svg"
   xmlns:svg="http://www.w3.org/2000/svg">
  <sodipodi:namedview
     id="namedview7"
     pagecolor="#505050"
     bordercolor="#eeeeee"
     borderopacity="1"
     inkscape:showpageshadow="0"
     inkscape:pageopacity="0"
     inkscape:pagecheckerboard="0"
     inkscape:deskcolor="#505050"
     inkscape:document-units="px"
     showgrid="false"
     inkscape:zoom="0.25"
     inkscape:cx="732"
     inkscape:cy="872"
     inkscape:window-width="1920"
     inkscape:window-height="1009"
     inkscape:window-x="-8"
     inkscape:window-y="-8"
     inkscape:window-maximized="1"
     inkscape:current-layer="layer1" />
  <defs
     id="defs2">
    <rect
       x="82"
       y="89.368273"
       width="512"
       height="89.368273"
       id="rect342" />
    <rect
       x="82"
       y="89.368271"
       width="512"
       height="89.368271"
       id="rect342-5" />
    <rect
       x="82"
       y="89.368271"
       width="512"
       height="89.368271"
       id="rect342-5-5" />
    <rect
       x="82"
       y="89.368271"
       width="512"
       height="89.368271"
       id="rect342-5-5-1" />
    <rect
       x="82"
       y="89.368271"
       width="512"
       height="89.368271"
       id="rect342-5-6" />
    <rect
       x="82"
       y="89.368271"
       width="512"
       height="89.368271"
       id="rect1225" />
    <rect
       x="82"
       y="89.368271"
       width="512"
       height="89.368271"
       id="rect1512" />
  </defs>
  <g
     inkscape:label="Layer 1"
     inkscape:groupmode="layer"
     id="layer1">
    <g
       id="g1470"
       transform="translate(-1.0639757e-4,2.75e-5)">
      <rect
         style="fill:#000000;fill-rule:evenodd;stroke-width:0.406165;stroke-linecap:round;stroke-linejoin:round"
         id="rect1454"
         width="508"
         height="35.317036"
         x="0"
         y="0"
         ry="0" />
      <text
         xml:space="preserve"
         transform="matrix(0.48526588,0,0,0.48526588,-30.680582,-39.967125)"
         id="text1460"
         style="font-style:normal;font-variant:normal;font-weight:500;font-stretch:normal;font-size:40px;line-height:1.25;font-family:'IBM Plex Sans JP';-inkscape-font-specification:'IBM Plex Sans JP Medium';white-space:pre;shape-inside:url(#rect1512);display:inline"><tspan
           x="82"
           y="129.56914"
           id="tspan691"><tspan
             style="font-weight:600;-inkscape-font-specification:'IBM Plex Sans JP Semi-Bold';fill:#ffffff"
             id="tspan689">2031/06/22</tspan></tspan></text>
      <text
         xml:space="preserve"
         style="font-style:normal;font-variant:normal;font-weight:500;font-stretch:normal;font-size:18.3399px;line-height:1.25;font-family:'IBM Plex Sans JP';-inkscape-font-specification:'IBM Plex Sans JP Medium';stroke-width:0.458499"
         x="141.51273"
         y="21.409792"
         id="text1464"
         transform="scale(0.99246876,1.0075884)"><tspan
           sodipodi:role="line"
           id="tspan1462"
           style="font-style:normal;font-variant:normal;font-weight:600;font-stretch:normal;font-family:'IBM Plex Sans JP';-inkscape-font-specification:'IBM Plex Sans JP Semi-Bold';fill:#ffffff;stroke-width:0.458499"
           x="141.51273"
           y="21.409792">あと1日</tspan></text>
      <text
         xml:space="preserve"
         style="font-style:normal;font-variant:normal;font-weight:500;font-stretch:normal;font-size:16.1556px;line-height:1.25;font-family:'IBM Plex Sans JP';-inkscape-font-specification:'IBM Plex Sans JP Medium';stroke-width:0.40389"
         x="428.86066"
         y="21.595259"
         id="text1468"><tspan
           sodipodi:role="line"
           id="tspan1466"
           style="font-style:normal;font-variant:normal;font-weight:600;font-stretch:normal;font-family:'IBM Plex Sans JP';-inkscape-font-specification:'IBM Plex Sans JP Semi-Bold';fill:#ffffff;stroke-width:0.40389"
           x="428.86066"
           y="21.595259">精神力:12</tspan></text>
    </g>
    <rect
       style="fill:none;fill-rule:evenodd;stroke:#ffffff;stroke-width:1.32292;stroke-linecap:round;stroke-linejoin:round;stroke-dasharray:none;stroke-opacity:1"
       id="rect1472"
       width="508"
       height="285.75"
       x="-4.4444441e-06"
       y="-2.4999999e-06" />
    <g
       id="g5859"
       transform="translate(2052.0105,129.11666)">
      <rect
         style="fill:#9a9a9a;fill-opacity:1;fill-rule:evenodd;stroke-width:0.436159;stroke-linecap:round;stroke-linejoin:round;stroke-dasharray:none"
         id="rect1474"
         width="409.31354"
         height="157.99586"
         x="-2002.6672"
         y="-52.948914" />
      <path
         id="path3017"
         style="fill:none;fill-rule:evenodd;stroke:#ffffff;stroke-width:1.14409;stroke-linecap:round;stroke-linejoin:round"
         inkscape:transform-center-x="-2.2468593e-06"
         d="m -1786.1974,-8.0740152 -12.6594,6.331726 -11.8131,-7.797506 0.8463,-14.1292358 12.6594,-6.331732 11.8131,7.797511 z" />
      <g
         id="g5409"
         transform="translate(-53.452868,-191.55833)">
        <path
           id="path2281"
           style="fill:#274c69;fill-opacity:1;stroke:none;stroke-width:0.0494898;stroke-opacity:1"
           class="st0"
           d="m -1906.0632,221.17969 a 0.99582868,0.99582868 0 0 0 -0.4979,0.13334 l -21.3372,12.31929 a 0.99582868,0.99582868 0 0 0 -0.4979,0.8623 v 24.63811 a 0.99582868,0.99582868 0 0 0 0.4979,0.86221 l 21.3372,12.31928 a 0.99582868,0.99582868 0 0 0 0.9957,0 l 21.3374,-12.31928 a 0.99582868,0.99582868 0 0 0 0.4979,-0.86221 v -24.63811 a 0.99582868,0.99582868 0 0 0 -0.4979,-0.8623 l -21.3374,-12.31929 a 0.99582868,0.99582868 0 0 0 -0.4978,-0.13334 z m 0,2.14548 20.3417,11.74414 v 23.48873 l -20.3417,11.74414 -20.3416,-11.74414 v -23.48873 z m -0.1335,3.69936 a 0.76922158,0.76922158 0 0 0 -0.2511,0.0914 l -16.4819,9.51593 a 0.76922158,0.76922158 0 0 0 -0.3845,0.66606 v 19.03157 a 0.76922158,0.76922158 0 0 0 0.3845,0.66605 l 16.4819,9.51593 a 0.76922158,0.76922158 0 0 0 0.7692,0 l 16.4819,-9.51593 a 0.76922158,0.76922158 0 0 0 0.3845,-0.66605 v -19.03157 a 0.76922158,0.76922158 0 0 0 -0.3845,-0.66606 l -16.4819,-9.51592 a 0.76922158,0.76922158 0 0 0 -0.5181,-0.0914 z m 0.1334,1.64554 15.7128,9.07174 v 18.14373 l -15.7128,9.07164 -15.7127,-9.07164 v -18.14373 z m 0,9.27395 c -1.299,-7.3e-4 -2.5403,0.23604 -3.7531,0.69214 -1.214,0.45565 -2.3986,1.12634 -3.6173,1.98835 -1.2818,0.91096 -2.5438,2.26306 -3.5186,3.43746 -0.4862,0.58725 -0.8961,1.12831 -1.1916,1.55031 -0.1485,0.21142 -0.2674,0.39226 -0.359,0.54493 -0.046,0.0776 -0.085,0.1468 -0.1221,0.22435 -0.019,0.0395 -0.037,0.0802 -0.057,0.13738 -0.01,0.029 -0.02,0.0626 -0.03,0.10726 -0.01,0.045 -0.02,0.10064 -0.021,0.18715 0,0.0862 0.012,0.14208 0.021,0.18706 0.019,0.0869 0.04,0.13507 0.058,0.18045 0.036,0.0842 0.07,0.14769 0.1109,0.2193 0.1488,0.25878 0.3875,0.60948 0.7148,1.05028 0.4882,0.65693 1.1615,1.48958 1.9237,2.31096 0.763,0.82133 1.6094,1.62972 2.471,2.24043 1.2187,0.86241 2.4034,1.53257 3.6173,1.98862 1.2128,0.45571 2.4541,0.69293 3.7531,0.69214 1.2989,7.3e-4 2.5402,-0.23643 3.7531,-0.69214 1.2135,-0.4561 2.3986,-1.12624 3.6172,-1.98825 1.2817,-0.91101 2.5439,-2.26311 3.5187,-3.43756 0.4862,-0.58719 0.896,-1.12826 1.1916,-1.55031 0.1484,-0.21176 0.2673,-0.39223 0.359,-0.5453 0.047,-0.0775 0.085,-0.14682 0.1221,-0.22397 0.019,-0.0395 0.037,-0.0803 0.057,-0.13785 0.01,-0.029 0.02,-0.0622 0.03,-0.1068 0.01,-0.045 0.02,-0.10099 0.021,-0.18715 0,-0.0865 -0.012,-0.14203 -0.021,-0.18706 -0.02,-0.0869 -0.04,-0.13542 -0.058,-0.18045 -0.036,-0.0841 -0.07,-0.14756 -0.1108,-0.21957 -0.1488,-0.25874 -0.3876,-0.60916 -0.7149,-1.05001 -0.4885,-0.65688 -1.1615,-1.48916 -1.9237,-2.3105 -0.763,-0.82133 -1.6093,-1.63013 -2.471,-2.24089 -1.2187,-0.86241 -2.4037,-1.53292 -3.6173,-1.98862 -1.2127,-0.45605 -2.4541,-0.69288 -3.7531,-0.69214 z m 0,2.85699 c 3.3209,0 6.0123,2.69261 6.0123,6.01234 0,3.32047 -2.6914,6.01234 -6.0123,6.01234 -3.3209,0 -6.0124,-2.69187 -6.0124,-6.01234 0,-3.31973 2.6915,-6.01234 6.0124,-6.01234 z m -2e-4,0.71243 c -2.9231,0 -5.3,2.37737 -5.3,5.30037 0,2.923 2.3769,5.29991 5.3,5.29991 2.923,0 5.3002,-2.37691 5.3002,-5.29991 0,-2.923 -2.3772,-5.30037 -5.3002,-5.30037 z m 0,0.70527 c 2.5418,0 4.595,2.05326 4.595,4.5951 0,2.54184 -2.0532,4.59464 -4.595,4.59464 -2.5419,0 -4.5946,-2.0528 -4.5946,-4.59464 0,-2.54184 2.0527,-4.5951 4.5946,-4.5951 z m 0,0.40471 c -2.31,0 -4.1899,1.8804 -4.1899,4.19039 0,2.30999 1.8799,4.18993 4.1899,4.18993 2.31,1e-5 4.1903,-1.87993 4.1903,-4.18993 0,-2.31 -1.8803,-4.1904 -4.1903,-4.19039 z m 0,0.70527 c 1.9288,-1e-5 3.485,1.55628 3.485,3.48512 0,1.92884 -1.5562,3.48467 -3.485,3.48466 -1.9288,0 -3.4847,-1.55582 -3.4847,-3.48466 0,-1.92884 1.5559,-3.48512 3.4847,-3.48512 z m 0,0.40893 c -1.6936,0 -3.0758,1.38255 -3.0758,3.07619 0,1.69364 1.3822,3.07582 3.0758,3.07583 1.6937,0 3.0762,-1.38218 3.0762,-3.07583 0,-1.69365 -1.3825,-3.0762 -3.0762,-3.07619 z m 0,0.87773 c 1.2192,-1e-5 2.1984,0.97925 2.1984,2.19846 0,1.21921 -0.9792,2.19801 -2.1984,2.198 -1.2192,0 -2.1981,-0.9788 -2.1981,-2.198 0,-1.2192 0.9789,-2.19846 2.1981,-2.19846 z" />
        <text
           xml:space="preserve"
           style="font-style:normal;font-variant:normal;font-weight:normal;font-stretch:normal;font-size:8.46667px;line-height:10.5833px;font-family:'Source Han Serif';-inkscape-font-specification:'Source Han Serif';stroke-width:0.264583"
           x="-1718.5123"
           y="244.7224"
           id="text3862"><tspan
             sodipodi:role="line"
             id="tspan3860"
             style="font-style:normal;font-variant:normal;font-weight:500;font-stretch:normal;font-size:8.46667px;font-family:'Source Han Serif';-inkscape-font-specification:'Source Han Serif Medium';text-align:center;text-anchor:middle;fill:#274c69;fill-opacity:1;stroke-width:0.264583"
             x="-1718.5123"
             y="244.7224">プロンプトインジェクションを用いたモノアイの利用は、犯罪です。</tspan><tspan
             sodipodi:role="line"
             style="font-style:normal;font-variant:normal;font-weight:500;font-stretch:normal;font-size:8.46667px;font-family:'Source Han Serif';-inkscape-font-specification:'Source Han Serif Medium';text-align:center;text-anchor:middle;fill:#274c69;fill-opacity:1;stroke-width:0.264583"
             x="-1718.5123"
             y="255.30569"
             id="tspan3864">  法により５年以下の懲役、または1000万円以下の罰金が科せられることがあります。</tspan></text>
      </g>
      <text
         xml:space="preserve"
         style="font-weight:500;font-size:10.5833px;line-height:1.25;font-family:'kurobara gothic';-inkscape-font-specification:'kurobara gothic Medium';stroke-width:0.264583"
         x="-1797.9047"
         y="10.318749"
         id="text4644"><tspan
           sodipodi:role="line"
           id="tspan4642"
           style="font-style:normal;font-variant:normal;font-weight:bold;font-stretch:normal;font-family:'Source Han Serif';-inkscape-font-specification:'Source Han Serif Bold';text-align:center;text-anchor:middle;fill:#ffffff;fill-opacity:1;stroke-width:0.264583"
           x="-1797.9047"
           y="10.318749">評価中</tspan></text>
    </g>
  </g>
</svg>
